<svg xmlns="http://www.w3.org/2000/svg" viewBox="0 0 64 64">
  <!-- Background -->
  <rect width="64" height="64" fill="#10B981" rx="8"/>
  
  <!-- Building -->
  <rect x="12" y="20" width="40" height="32" fill="#E8F5E9" stroke="#ffffff" stroke-width="1" rx="2"/>
  
  <!-- Windows -->
  <g fill="#10B981">
    <rect x="16" y="24" width="6" height="6"/>
    <rect x="24" y="24" width="6" height="6"/>
    <rect x="32" y="24" width="6" height="6"/>
    <rect x="40" y="24" width="6" height="6"/>
    
    <rect x="16" y="34" width="6" height="6"/>
    <rect x="24" y="34" width="6" height="6"/>
    <rect x="32" y="34" width="6" height="6"/>
    <rect x="40" y="34" width="6" height="6"/>
    
    <rect x="16" y="44" width="6" height="6"/>
    <rect x="24" y="44" width="6" height="6"/>
    <rect x="32" y="44" width="6" height="6"/>
    <rect x="40" y="44" width="6" height="6"/>
  </g>
  
  <!-- Lightning Bolt -->
  <g fill="#FCD34D">
    <polygon points="32,6 38,22 28,22 36,38 20,24 30,24"/>
  </g>
</svg>